# xmcd
#
# Track frame offsets:
# 150
# 25244
# 44160
# 64077
# 81316
# 97225
# 112964
# 132384
# 155777
# 173510
# 185892
# 200171
# 217817
# 236457
#
# Disc length: 3429 seconds
#
# Revision: 0
# Processed by: cddbd v1.5.2PL0 Copyright (c) Steve Scherf et al.
# Submitted via: Axialis_AX_CDPlayer 2.6
#
DISCID=d00d630e
DTITLE=J.J.Cale and Eric Clapton - Road To Escondido
DYEAR=1900
DGENRE=
TTITLE0=Danger
TTITLE1=Heads In Georgia 
TTITLE2=Missing Person 
TTITLE3=When This War Is Over 
TTITLE4=Sporting Life Blues 
TTITLE5=Dead End Road 
TTITLE6=It's Easy 
TTITLE7=Hard To Thrill 
TTITLE8=Anyway The Wind Blows 
TTITLE9=Three Little Girls 
TTITLE10=Don't Cry Sister
TTITLE11=Last Will And Testament
TTITLE12=Who Am I Telling You? 
TTITLE13=Ride The River 
EXTD=
EXTT0=
EXTT1=
EXTT2=
EXTT3=
EXTT4=
EXTT5=
EXTT6=
EXTT7=
EXTT8=
EXTT9=
EXTT10=
EXTT11=
EXTT12=
EXTT13=
PLAYORDER=
